<mxfile host="Electron" modified="2023-08-29T12:49:27.449Z" agent="Mozilla/5.0 (Windows NT 10.0; Win64; x64) AppleWebKit/537.36 (KHTML, like Gecko) draw.io/21.6.8 Chrome/114.0.5735.289 Electron/25.5.0 Safari/537.36" etag="r-oYDTQ107r997fgkxAc" version="21.6.8" type="device">
  <diagram name="Strona-1" id="k5uwrgj8cznOGeKmCdS2">
    <mxGraphModel dx="1362" dy="1162" grid="1" gridSize="10" guides="1" tooltips="1" connect="1" arrows="1" fold="1" page="1" pageScale="1" pageWidth="1169" pageHeight="827" math="0" shadow="0">
      <root>
        <mxCell id="0" />
        <mxCell id="1" parent="0" />
        <mxCell id="Yas2NR3heJ6Te9qgPKMC-14" style="edgeStyle=orthogonalEdgeStyle;rounded=0;orthogonalLoop=1;jettySize=auto;html=1;exitX=0;exitY=0.5;exitDx=0;exitDy=0;fillColor=#a20025;strokeColor=#6F0000;" edge="1" parent="1" source="Yas2NR3heJ6Te9qgPKMC-1" target="Yas2NR3heJ6Te9qgPKMC-6">
          <mxGeometry relative="1" as="geometry" />
        </mxCell>
        <mxCell id="Yas2NR3heJ6Te9qgPKMC-15" style="edgeStyle=orthogonalEdgeStyle;rounded=0;orthogonalLoop=1;jettySize=auto;html=1;exitX=0;exitY=0.5;exitDx=0;exitDy=0;entryX=0.986;entryY=0.681;entryDx=0;entryDy=0;entryPerimeter=0;fillColor=#a20025;strokeColor=#6F0000;" edge="1" parent="1" source="Yas2NR3heJ6Te9qgPKMC-1" target="Yas2NR3heJ6Te9qgPKMC-5">
          <mxGeometry relative="1" as="geometry">
            <Array as="points">
              <mxPoint x="740" y="630" />
              <mxPoint x="740" y="356" />
              <mxPoint x="643" y="356" />
            </Array>
          </mxGeometry>
        </mxCell>
        <mxCell id="Yas2NR3heJ6Te9qgPKMC-17" style="edgeStyle=orthogonalEdgeStyle;rounded=0;orthogonalLoop=1;jettySize=auto;html=1;exitX=0.5;exitY=0;exitDx=0;exitDy=0;entryX=1.005;entryY=0.644;entryDx=0;entryDy=0;entryPerimeter=0;fillColor=#d80073;strokeColor=#A50040;" edge="1" parent="1" source="Yas2NR3heJ6Te9qgPKMC-1" target="Yas2NR3heJ6Te9qgPKMC-4">
          <mxGeometry relative="1" as="geometry">
            <Array as="points">
              <mxPoint x="860" y="600" />
              <mxPoint x="860" y="222" />
            </Array>
          </mxGeometry>
        </mxCell>
        <mxCell id="Yas2NR3heJ6Te9qgPKMC-20" style="edgeStyle=orthogonalEdgeStyle;rounded=0;orthogonalLoop=1;jettySize=auto;html=1;exitX=0;exitY=0.5;exitDx=0;exitDy=0;entryX=0.998;entryY=0.6;entryDx=0;entryDy=0;entryPerimeter=0;fillColor=#a20025;strokeColor=#6F0000;" edge="1" parent="1" source="Yas2NR3heJ6Te9qgPKMC-1" target="Yas2NR3heJ6Te9qgPKMC-19">
          <mxGeometry relative="1" as="geometry" />
        </mxCell>
        <mxCell id="Yas2NR3heJ6Te9qgPKMC-23" style="edgeStyle=orthogonalEdgeStyle;rounded=0;orthogonalLoop=1;jettySize=auto;html=1;exitX=0;exitY=0.5;exitDx=0;exitDy=0;entryX=1;entryY=0.5;entryDx=0;entryDy=0;fillColor=#a20025;strokeColor=#6F0000;" edge="1" parent="1" source="Yas2NR3heJ6Te9qgPKMC-1" target="Yas2NR3heJ6Te9qgPKMC-22">
          <mxGeometry relative="1" as="geometry" />
        </mxCell>
        <mxCell id="Yas2NR3heJ6Te9qgPKMC-1" value="task" style="rounded=0;whiteSpace=wrap;html=1;" vertex="1" parent="1">
          <mxGeometry x="950" y="600" width="120" height="60" as="geometry" />
        </mxCell>
        <mxCell id="Yas2NR3heJ6Te9qgPKMC-7" style="edgeStyle=orthogonalEdgeStyle;rounded=0;orthogonalLoop=1;jettySize=auto;html=1;entryX=0;entryY=0.5;entryDx=0;entryDy=0;fillColor=#1ba1e2;strokeColor=#006EAF;" edge="1" parent="1" target="Yas2NR3heJ6Te9qgPKMC-4">
          <mxGeometry relative="1" as="geometry">
            <mxPoint x="240" y="400" as="sourcePoint" />
          </mxGeometry>
        </mxCell>
        <mxCell id="Yas2NR3heJ6Te9qgPKMC-8" style="edgeStyle=orthogonalEdgeStyle;rounded=0;orthogonalLoop=1;jettySize=auto;html=1;exitX=1;exitY=0.5;exitDx=0;exitDy=0;entryX=0;entryY=0.5;entryDx=0;entryDy=0;fillColor=#1ba1e2;strokeColor=#006EAF;" edge="1" parent="1" source="Yas2NR3heJ6Te9qgPKMC-2" target="Yas2NR3heJ6Te9qgPKMC-5">
          <mxGeometry relative="1" as="geometry" />
        </mxCell>
        <mxCell id="Yas2NR3heJ6Te9qgPKMC-9" style="edgeStyle=orthogonalEdgeStyle;rounded=0;orthogonalLoop=1;jettySize=auto;html=1;exitX=1;exitY=0.5;exitDx=0;exitDy=0;entryX=0;entryY=0.5;entryDx=0;entryDy=0;fillColor=#1ba1e2;strokeColor=#006EAF;" edge="1" parent="1" source="Yas2NR3heJ6Te9qgPKMC-2" target="Yas2NR3heJ6Te9qgPKMC-6">
          <mxGeometry relative="1" as="geometry" />
        </mxCell>
        <mxCell id="Yas2NR3heJ6Te9qgPKMC-2" value="project" style="rounded=0;whiteSpace=wrap;html=1;" vertex="1" parent="1">
          <mxGeometry x="120" y="370" width="120" height="60" as="geometry" />
        </mxCell>
        <mxCell id="Yas2NR3heJ6Te9qgPKMC-10" style="edgeStyle=orthogonalEdgeStyle;rounded=0;orthogonalLoop=1;jettySize=auto;html=1;entryX=1;entryY=0.5;entryDx=0;entryDy=0;fillColor=#60a917;strokeColor=#2D7600;" edge="1" parent="1" source="Yas2NR3heJ6Te9qgPKMC-3" target="Yas2NR3heJ6Te9qgPKMC-4">
          <mxGeometry relative="1" as="geometry" />
        </mxCell>
        <mxCell id="Yas2NR3heJ6Te9qgPKMC-11" style="edgeStyle=orthogonalEdgeStyle;rounded=0;orthogonalLoop=1;jettySize=auto;html=1;exitX=0;exitY=0.5;exitDx=0;exitDy=0;entryX=1;entryY=0.5;entryDx=0;entryDy=0;fillColor=#60a917;strokeColor=#2D7600;" edge="1" parent="1" source="Yas2NR3heJ6Te9qgPKMC-3" target="Yas2NR3heJ6Te9qgPKMC-5">
          <mxGeometry relative="1" as="geometry" />
        </mxCell>
        <mxCell id="Yas2NR3heJ6Te9qgPKMC-12" style="edgeStyle=orthogonalEdgeStyle;rounded=0;orthogonalLoop=1;jettySize=auto;html=1;exitX=0;exitY=0.5;exitDx=0;exitDy=0;entryX=1;entryY=0.5;entryDx=0;entryDy=0;fillColor=#60a917;strokeColor=#2D7600;" edge="1" parent="1" source="Yas2NR3heJ6Te9qgPKMC-3" target="Yas2NR3heJ6Te9qgPKMC-6">
          <mxGeometry relative="1" as="geometry" />
        </mxCell>
        <mxCell id="Yas2NR3heJ6Te9qgPKMC-3" value="board" style="rounded=0;whiteSpace=wrap;html=1;" vertex="1" parent="1">
          <mxGeometry x="950" y="250" width="120" height="60" as="geometry" />
        </mxCell>
        <mxCell id="Yas2NR3heJ6Te9qgPKMC-4" value="list" style="ellipse;whiteSpace=wrap;html=1;" vertex="1" parent="1">
          <mxGeometry x="525" y="170" width="120" height="80" as="geometry" />
        </mxCell>
        <mxCell id="Yas2NR3heJ6Te9qgPKMC-5" value="create" style="ellipse;whiteSpace=wrap;html=1;" vertex="1" parent="1">
          <mxGeometry x="525" y="300" width="120" height="80" as="geometry" />
        </mxCell>
        <mxCell id="Yas2NR3heJ6Te9qgPKMC-6" value="remove" style="ellipse;whiteSpace=wrap;html=1;" vertex="1" parent="1">
          <mxGeometry x="525" y="430" width="120" height="80" as="geometry" />
        </mxCell>
        <mxCell id="Yas2NR3heJ6Te9qgPKMC-19" value="status" style="ellipse;whiteSpace=wrap;html=1;" vertex="1" parent="1">
          <mxGeometry x="400" y="610" width="120" height="80" as="geometry" />
        </mxCell>
        <mxCell id="Yas2NR3heJ6Te9qgPKMC-22" value="set" style="ellipse;whiteSpace=wrap;html=1;" vertex="1" parent="1">
          <mxGeometry x="400" y="720" width="120" height="80" as="geometry" />
        </mxCell>
      </root>
    </mxGraphModel>
  </diagram>
</mxfile>
